HIERARCHY
ROOT root
{
	OFFSET 0.000000 0.000000 0.000000
	CHANNELS 6 Xposition Yposition Zposition Zrotation Yrotation Xrotation
	JOINT lhip
	{
		OFFSET 0.058581 -0.082280 -0.017664
		CHANNELS 3 Zrotation Yrotation Xrotation
		JOINT lknee
		{
			OFFSET 0.043451 -0.386469 0.008037
			CHANNELS 3 Zrotation Yrotation Xrotation
			JOINT lankle
			{
				OFFSET -0.014790 -0.426874 -0.037428
				CHANNELS 3 Zrotation Yrotation Xrotation
				JOINT ltoe
				{
					OFFSET 0.041054 -0.060286 0.122042
					CHANNELS 3 Zrotation Yrotation Xrotation
					End Site
					{
						OFFSET 0.000000 0.000000 0.000000
					}
				}
			}
		}
	}
	JOINT rhip
	{
		OFFSET -0.060310 -0.090513 -0.013543
		CHANNELS 3 Zrotation Yrotation Xrotation
		JOINT rknee
		{
			OFFSET -0.043257 -0.383688 -0.004843
			CHANNELS 3 Zrotation Yrotation Xrotation
			JOINT rankle
			{
				OFFSET 0.019056 -0.420046 -0.034562
				CHANNELS 3 Zrotation Yrotation Xrotation
				JOINT rtoe
				{
					OFFSET -0.034840 -0.062106 0.130323
					CHANNELS 3 Zrotation Yrotation Xrotation
					End Site
					{
						OFFSET 0.000000 0.000000 0.000000
					}
				}
			}
		}
	}
	JOINT lowerback
	{
		OFFSET 0.004439 0.124404 -0.038385
		CHANNELS 3 Zrotation Yrotation Xrotation
		JOINT upperback
		{
			OFFSET 0.004488 0.137956 0.026820
			CHANNELS 3 Zrotation Yrotation Xrotation
			JOINT chest
			{
				OFFSET -0.002265 0.056032 0.002855
				CHANNELS 3 Zrotation Yrotation Xrotation
				JOINT lowerneck
				{
					OFFSET -0.013390 0.211636 -0.033468
					CHANNELS 3 Zrotation Yrotation Xrotation
					JOINT upperneck
					{
						OFFSET 0.010113 0.088937 0.050410
						CHANNELS 3 Zrotation Yrotation Xrotation
						End Site
						{
							OFFSET 0.000000 0.000000 0.000000
						}
					}
				}
				JOINT lclavicle
				{
					OFFSET 0.071702 0.114000 -0.018898
					CHANNELS 3 Zrotation Yrotation Xrotation
					JOINT lshoulder
					{
						OFFSET 0.122921 0.045205 -0.019046
						CHANNELS 3 Zrotation Yrotation Xrotation
						JOINT lelbow
						{
							OFFSET 0.255332 -0.015649 -0.022946
							CHANNELS 3 Zrotation Yrotation Xrotation
							JOINT lwrist
							{
								OFFSET 0.265709 0.012698 -0.007375
								CHANNELS 3 Zrotation Yrotation Xrotation
								End Site
								{
									OFFSET 0.000000 0.000000 0.000000
								}
							}
						}
					}
				}
				JOINT rclavicle
				{
					OFFSET -0.082954 0.112472 -0.023707
					CHANNELS 3 Zrotation Yrotation Xrotation
					JOINT rshoulder
					{
						OFFSET -0.113228 0.046853 -0.008472
						CHANNELS 3 Zrotation Yrotation Xrotation
						JOINT relbow
						{
							OFFSET -0.260127 -0.014369 -0.031269
							CHANNELS 3 Zrotation Yrotation Xrotation
							JOINT rwrist
							{
								OFFSET -0.269108 0.006794 -0.006027
								CHANNELS 3 Zrotation Yrotation Xrotation
								End Site
								{
									OFFSET 0.000000 0.000000 0.000000
								}
							}
						}
					}
				}
			}
		}
	}
}
MOTION
Frames: 16
Frame Time: 0.033333
-1.866677 0.720450 0.957482 82.811281 -0.674480 85.524790 7.003027 0.397499 -25.890395 -3.357113 14.671338 25.640369 -0.899638 12.410779 -11.593959 0.000000 -0.000000 0.000000 -1.004088 -3.556289 16.178423 2.126036 8.218737 4.867117 -0.546566 -0.006422 -22.581777 0.000000 -0.000000 0.000000 -0.350430 8.683483 10.876368 2.503004 -2.466593 1.656981 1.305106 1.172580 1.490306 3.711120 -4.317961 -7.180667 2.048856 -9.364757 -5.654460 -22.514156 6.992431 5.853276 -54.956933 10.296882 14.542641 -10.012790 -37.922295 33.584899 -4.488491 -13.441884 -7.970488 21.205974 3.326981 2.504366 52.767659 9.601088 12.191245 -5.160765 44.579444 -0.726297 -2.812148 11.855366 -22.809456 
-1.815175 0.721887 0.946418 81.009163 0.178072 85.566729 7.905916 2.156844 -26.844912 -3.965629 10.507093 13.873687 -2.359408 10.150258 -10.943833 0.000000 -0.000000 0.000000 -2.520467 -5.147554 20.130232 2.683978 10.052147 4.357204 0.315433 2.075464 -23.282733 0.000000 -0.000000 0.000000 0.594584 9.582054 10.761607 2.187798 -1.902574 2.802833 1.286805 2.045529 1.127059 4.088252 -3.835007 -7.841746 1.496549 -10.389016 -5.635047 -22.730045 8.726906 5.168502 -54.801397 12.755525 13.192190 -8.100947 -35.925814 32.205315 -4.496873 -12.202735 -5.998634 21.143682 4.453422 2.025566 50.629667 13.467482 11.310983 -3.025912 46.086948 0.876213 -3.192552 12.318035 -22.641599 
-1.760645 0.725295 0.935683 80.107067 0.742707 85.835824 8.468648 3.252432 -28.233846 -3.900560 9.126269 7.509798 -2.733184 8.776833 -10.777058 0.000000 -0.000000 0.000000 -4.242175 -5.516472 23.610219 3.246961 11.377205 4.431238 1.632342 3.564854 -22.462170 0.000000 -0.000000 0.000000 1.099594 9.993288 10.017732 2.098883 -1.653150 3.452033 1.363949 2.798415 1.195682 4.313483 -3.794472 -7.980918 0.868225 -10.853211 -5.481001 -22.945992 10.105936 5.208657 -55.054646 14.782808 12.013881 -5.525984 -34.366072 30.355935 -5.433404 -12.040825 -5.704695 20.862468 5.473810 2.137791 48.797952 17.060016 10.298636 -1.928769 46.481369 1.462808 -3.382726 13.174861 -21.577546 
-1.687642 0.729058 0.925641 78.637057 0.916272 86.365836 9.133658 2.803909 -28.846460 -3.840583 11.492790 6.449327 -2.895824 8.794601 -10.978334 0.000000 -0.000000 0.000000 -6.883237 -5.670264 26.464097 3.385565 12.447264 6.487966 4.155572 5.842563 -19.839999 0.000000 -0.000000 0.000000 0.664882 11.381031 8.616579 2.143270 -1.197297 4.278622 1.576504 3.264980 0.952657 4.757686 -4.285703 -8.541710 0.497915 -10.750875 -5.150757 -22.907765 11.710141 4.677682 -55.263177 17.457325 10.960893 -2.463086 -33.282274 27.754759 -5.716426 -11.824392 -4.423861 21.359419 5.713192 1.678694 47.836966 19.195027 9.848122 -3.375958 46.864569 -0.537606 -0.136813 13.433246 -18.955510 
-1.642489 0.732752 0.920739 78.462438 0.751759 87.462446 8.866468 2.234029 -30.523278 -3.790835 12.797620 10.390122 -1.988111 8.225683 -4.463481 0.000000 -0.000000 0.000000 -8.040036 -5.356486 26.575159 3.166753 13.411819 9.184865 4.313608 6.879419 -17.092716 0.000000 -0.000000 0.000000 -0.178526 12.002301 7.080699 2.515022 -1.182585 4.273433 1.524324 3.483824 0.714674 4.755139 -4.821933 -8.277501 0.600550 -10.829699 -5.288001 -22.796432 12.621255 4.881917 -54.945910 18.525328 10.749497 -1.610792 -33.215527 27.640627 -5.299345 -11.163816 -4.981020 21.595680 5.284603 2.107561 47.729710 19.663771 10.209894 -5.073742 47.258769 -1.340816 -2.137691 13.212240 -19.132577 
-1.579892 0.738741 0.918973 78.476097 -0.544914 89.756071 8.717744 0.952043 -34.999905 -4.721643 13.326394 20.285573 3.951897 10.732071 1.619867 0.000000 -0.000000 0.000000 -9.186225 -2.768347 24.009104 3.694721 11.720412 15.529446 7.766105 4.840951 -9.808798 0.000000 -0.000000 0.000000 -2.408660 13.821993 1.705592 2.839589 -2.310775 11.186764 0.090131 3.126241 -4.942755 6.377174 -8.290753 -3.977463 1.462665 -7.482737 -9.702127 -19.276409 13.453070 4.813365 -58.617617 19.486234 12.887676 5.184055 -31.090057 19.962395 -11.614287 -13.200939 -0.426164 23.047827 5.116988 4.113071 48.696103 20.016816 10.796211 -10.008832 44.983880 -12.172050 1.101226 16.354978 -12.038551 
-1.520100 0.746510 0.922662 79.908532 -2.744873 91.134327 7.508453 -2.238761 -36.212407 -6.353384 15.539785 25.578519 7.108769 11.265653 -0.280151 0.000000 -0.000000 0.000000 -11.716351 -2.947490 19.141266 4.159333 8.214377 27.442734 9.016696 4.101859 0.117722 0.000000 -0.000000 0.000000 -5.409071 13.981319 -0.322837 2.972450 -2.336562 11.069479 -0.059389 2.579673 -4.938769 6.550928 -8.877213 -3.189982 2.023223 -7.767311 -10.244393 -18.218291 12.660469 4.361296 -58.886105 19.447548 13.596149 6.396143 -30.484375 19.450337 -12.314641 -13.481367 -1.357510 23.909760 4.396157 2.464859 50.699012 17.705889 11.228537 -12.214310 43.290366 -14.545273 2.027267 16.506822 -10.686927 
-1.462989 0.754161 0.930550 81.298346 -4.174836 90.312098 4.115193 -3.940711 -33.123121 -6.661231 13.869809 28.217749 10.062732 13.141774 -4.884610 0.000000 -0.000000 0.000000 -11.985885 -2.016072 14.443553 2.611230 3.742036 40.376313 6.675407 -1.730362 9.126240 0.000000 -0.000000 0.000000 -6.529193 12.422102 0.907135 3.066042 -1.646776 10.465735 -0.482768 2.404307 -4.491374 6.965287 -8.692883 -3.325882 1.209948 -7.811362 -10.006497 -18.069355 11.404460 3.883519 -59.372364 18.140605 14.175067 7.185654 -30.644788 18.029873 -10.470119 -13.541493 -3.349558 23.812761 4.305885 1.497218 52.729937 14.947626 12.269966 -13.206003 41.753262 -14.477897 -1.262086 14.889842 -14.193268 
-1.408797 0.761924 0.941363 82.651598 -5.311105 89.758371 0.814067 -5.586521 -28.606270 -6.719641 11.962173 27.647968 11.009927 15.086448 -8.250599 0.000000 -0.000000 0.000000 -11.930902 -1.722793 7.660068 -0.193365 -0.142993 52.731787 2.338001 -8.576545 7.213447 0.000000 -0.000000 0.000000 -6.964665 10.124577 2.468855 2.642480 -1.477013 9.047402 -0.703115 2.328367 -3.445254 6.015979 -9.126734 -3.023592 2.071807 -6.692458 -10.610882 -18.769245 10.475583 2.936098 -59.572484 16.197525 14.394490 7.752926 -31.412633 15.489980 -7.927822 -13.483603 -4.195015 23.954755 3.847196 -0.050671 54.676560 12.544952 13.319502 -12.606448 40.275528 -13.049504 -2.423872 14.211221 -15.532064 
-1.342878 0.767637 0.961297 84.187728 -5.139474 88.766712 -2.175761 -5.634584 -20.539224 -6.275754 8.041239 23.231722 10.165805 16.725769 -9.943356 0.000000 -0.000000 0.000000 -9.341911 -1.661925 -0.019924 -2.303426 -1.534758 60.914596 0.032845 -12.205524 0.879316 0.000000 -0.000000 0.000000 -6.211378 7.524168 4.372793 2.554109 -1.496746 7.739273 -0.401474 1.911929 -2.697776 3.761683 -9.454989 -1.541398 3.481278 -4.640904 -11.279013 -20.129937 8.491871 1.883063 -60.473607 12.848573 14.883832 8.562120 -31.799299 11.799449 -3.719511 -13.673115 -5.395277 23.694725 3.492579 -0.467399 55.799560 8.951286 14.013909 -11.012548 39.467350 -10.557432 -5.355535 14.974893 -17.323933 
-1.291159 0.770554 0.979798 85.654376 -4.464766 87.831144 -4.064610 -4.978004 -13.566554 -5.795230 2.975970 19.272518 9.558427 18.702580 -10.840735 0.000000 -0.000000 0.000000 -7.240523 -1.200386 -5.143888 -1.776539 -3.132906 61.684302 -0.111225 -12.696587 -3.996120 0.000000 -0.000000 0.000000 -5.260740 5.274134 5.202323 2.674955 -1.467588 7.413706 -0.070534 1.150776 -2.085363 2.296748 -9.808574 -0.866995 4.026960 -3.463897 -11.025258 -20.883040 6.212808 1.193241 -61.478843 9.615305 15.374474 9.213721 -32.078343 8.756472 -2.151635 -13.374089 -4.589162 22.892380 3.146178 -1.165040 56.805476 5.076130 14.029417 -9.866390 39.080704 -7.966259 -4.646477 15.216236 -17.242434 
-1.240258 0.772489 0.995433 87.460401 -3.394015 87.023738 -4.968237 -3.624120 -6.470176 -4.421232 -0.804733 14.283028 8.049002 19.327848 -11.616123 0.000000 -0.000000 0.000000 -4.938615 -0.448652 -9.414306 -0.798580 -4.998580 57.521394 -0.110856 -13.604519 -9.765921 0.000000 -0.000000 0.000000 -3.921074 2.691673 6.083190 2.731190 -1.577975 6.900396 0.165317 0.400331 -1.884409 0.875475 -8.956751 0.203033 4.752329 -2.757530 -10.441288 -21.116673 4.280715 0.956875 -61.819243 5.601855 16.336143 8.748538 -32.595535 7.393227 -1.574767 -13.887514 -2.391612 21.891589 2.359660 -1.746567 57.719306 1.068232 13.759212 -8.238754 38.558037 -5.272488 -3.443984 15.803445 -16.210668 
-1.190776 0.773579 1.006075 89.411382 -2.148979 86.697379 -4.688901 -2.152456 -0.280924 -3.370210 -4.636124 10.005826 6.481725 19.501773 -12.860094 0.000000 -0.000000 0.000000 -3.156131 0.072656 -13.706946 0.310312 -7.050075 50.537455 -0.149252 -14.240209 -11.665588 0.000000 -0.000000 0.000000 -2.762331 0.001127 6.338573 3.124629 -2.071811 6.783912 0.365857 -0.351020 -1.978456 -0.280792 -7.690979 0.960878 4.974310 -2.647047 -10.022732 -21.599792 2.507187 0.975507 -60.796792 1.735919 17.264695 7.293880 -34.547683 6.262523 -1.848185 -14.348177 -0.636080 21.054621 1.820555 -2.482762 57.988504 -3.142265 13.274182 -6.681874 38.205945 -2.826004 -2.255820 15.772044 -15.195937 
-1.141539 0.774420 1.009934 91.315098 -1.254418 86.408862 -4.000497 -0.408996 5.374522 -2.463457 -7.744093 6.166683 4.924902 18.815172 -14.381793 0.000000 -0.000000 0.000000 -2.388960 0.058596 -17.378866 1.401083 -8.249779 41.859794 0.671742 -15.136743 -12.919112 0.000000 -0.000000 0.000000 -2.042184 -2.396772 7.120996 3.458816 -2.531940 5.984276 0.502657 -1.159392 -1.666064 -1.025037 -6.691495 0.502256 5.413370 -2.477654 -9.249589 -21.622814 1.339855 0.990743 -59.064669 -2.620071 18.974024 5.645471 -37.268438 7.148755 -1.879209 -15.137859 -0.295804 20.358582 0.693797 -1.914735 57.987318 -6.427813 13.110593 -6.066940 38.624473 -1.278972 -2.407319 15.335251 -16.402638 
-1.090861 0.775177 1.007243 93.220039 -0.948751 86.374696 -3.163885 1.720120 10.715473 -1.717702 -10.254709 2.315540 3.089740 17.852201 -15.854692 0.000000 -0.000000 0.000000 -2.642465 -0.154659 -20.001961 2.458800 -7.758926 30.453651 0.981543 -14.621221 -13.149936 0.000000 -0.000000 0.000000 -1.703234 -4.209343 6.938050 3.584536 -3.210424 6.167671 0.564235 -1.914761 -1.790476 -1.953075 -6.005382 0.693484 5.815674 -2.443843 -8.938181 -21.748765 -0.289300 1.048377 -56.251963 -7.078374 19.995066 2.684911 -39.080767 8.550422 1.566802 -17.838934 1.103267 19.891610 -0.943885 -2.215088 57.639739 -10.035585 11.608440 -4.465918 38.958162 -0.188543 -2.763202 16.247260 -15.517407 
-1.041255 0.775376 0.997903 95.095572 -1.084670 86.636024 -1.884748 3.943713 14.865681 -1.842306 -12.485399 0.082191 1.351967 16.793739 -18.180629 0.000000 -0.000000 0.000000 -3.329827 -0.911288 -22.233710 2.889906 -6.339331 18.209442 1.079814 -14.325846 -12.778992 0.000000 -0.000000 0.000000 -1.983979 -5.547166 6.710565 3.748064 -3.907476 6.063411 0.730925 -2.647932 -1.618530 -2.399835 -5.176045 0.361960 6.048443 -2.676022 -8.999202 -21.687993 -1.805380 1.372227 -53.620219 -12.209045 20.079385 0.894093 -40.725519 7.852975 1.991591 -18.602663 2.134706 19.326095 -2.714827 -2.417387 57.176068 -12.659980 10.062608 -2.959670 38.622588 1.263952 -1.539441 15.700760 -14.710014 
